HIERARCHY
ROOT Hips
{
  OFFSET -49.9116 92.6055 198.92
  CHANNELS 6 Xposition Yposition Zposition Zrotation Xrotation Yrotation
  JOINT Spine
  {
    OFFSET 0 8 0
    CHANNELS 6 Xposition Yposition Zposition Zrotation Xrotation Yrotation
    JOINT Spine1
    {
      OFFSET 0 8 0
      CHANNELS 6 Xposition Yposition Zposition Zrotation Xrotation Yrotation
      JOINT Spine2
      {
        OFFSET 0 8 0
        CHANNELS 6 Xposition Yposition Zposition Zrotation Xrotation Yrotation
        JOINT Spine3
        {
          OFFSET 0 8 0
          CHANNELS 6 Xposition Yposition Zposition Zrotation Xrotation Yrotation
          JOINT Neck
          {
            OFFSET 0 17 0
            CHANNELS 6 Xposition Yposition Zposition Zrotation Xrotation Yrotation
            JOINT Head
            {
              OFFSET 0 10.8 0
              CHANNELS 6 Xposition Yposition Zposition Zrotation Xrotation Yrotation
              End Site
              {
                OFFSET 0 20.25 0
              }
            }
          }
          JOINT LeftShoulder
          {
            OFFSET 5.00001 17 0
            CHANNELS 6 Xposition Yposition Zposition Zrotation Xrotation Yrotation
            JOINT LeftShoulder2
            {
              OFFSET 6.45 0 0
              CHANNELS 6 Xposition Yposition Zposition Zrotation Xrotation Yrotation
              JOINT LeftArm
              {
                OFFSET 6.45 0 1.08772e-05
                CHANNELS 6 Xposition Yposition Zposition Zrotation Xrotation Yrotation
                JOINT LeftForeArm
                {
                  OFFSET 0 -32.4 -2.00001
                  CHANNELS 6 Xposition Yposition Zposition Zrotation Xrotation Yrotation
                  JOINT LeftHand
                  {
                    OFFSET 0 -25.65 2.00001
                    CHANNELS 6 Xposition Yposition Zposition Zrotation Xrotation Yrotation
                    JOINT LeftHandThumb1
                    {
                      OFFSET -0.499981 -1.50001 2.65
                      CHANNELS 6 Xposition Yposition Zposition Zrotation Xrotation Yrotation
                      JOINT LeftHandThumb2
                      {
                        OFFSET -1.43738e-05 -3.79999 3.69999
                        CHANNELS 6 Xposition Yposition Zposition Zrotation Xrotation Yrotation
                        JOINT LeftHandThumb3
                        {
                          OFFSET 0 -3 2.7
                          CHANNELS 6 Xposition Yposition Zposition Zrotation Xrotation Yrotation
                          End Site
                          {
                            OFFSET 0 -2.3 1.80001
                          }
                        }
                      }
                    }
                    JOINT LeftHandIndex
                    {
                      OFFSET 1.70165e-05 -1.9 1.6
                      CHANNELS 6 Xposition Yposition Zposition Zrotation Xrotation Yrotation
                      JOINT LeftHandIndex1
                      {
                        OFFSET -1.83863e-05 -8.30001 1.9
                        CHANNELS 6 Xposition Yposition Zposition Zrotation Xrotation Yrotation
                        JOINT LeftHandIndex2
                        {
                          OFFSET 1.77798e-05 -4.5 0
                          CHANNELS 6 Xposition Yposition Zposition Zrotation Xrotation Yrotation
                          JOINT LeftHandIndex3
                          {
                            OFFSET 0 -3.4 0
                            CHANNELS 6 Xposition Yposition Zposition Zrotation Xrotation Yrotation
                            End Site
                            {
                              OFFSET 0 -2.6 0
                            }
                          }
                        }
                      }
                    }
                    JOINT LeftHandMiddle
                    {
                      OFFSET -0.249985 -2.20001 0.400003
                      CHANNELS 6 Xposition Yposition Zposition Zrotation Xrotation Yrotation
                      JOINT LeftHandMiddle1
                      {
                        OFFSET 0 -8.3 0.999991
                        CHANNELS 6 Xposition Yposition Zposition Zrotation Xrotation Yrotation
                        JOINT LeftHandMiddle2
                        {
                          OFFSET 0 -4.65 0
                          CHANNELS 6 Xposition Yposition Zposition Zrotation Xrotation Yrotation
                          JOINT LeftHandMiddle3
                          {
                            OFFSET 0 -3.3 0
                            CHANNELS 6 Xposition Yposition Zposition Zrotation Xrotation Yrotation
                            End Site
                            {
                              OFFSET 0 -2.69999 0
                            }
                          }
                        }
                      }
                    }
                    JOINT LeftHandRing
                    {
                      OFFSET -0.499991 -2.15001 -0.799999
                      CHANNELS 6 Xposition Yposition Zposition Zrotation Xrotation Yrotation
                      JOINT LeftHandRing1
                      {
                        OFFSET 0 -7.75 -0.200001
                        CHANNELS 6 Xposition Yposition Zposition Zrotation Xrotation Yrotation
                        JOINT LeftHandRing2
                        {
                          OFFSET 1.00558e-05 -3.79998 0
                          CHANNELS 6 Xposition Yposition Zposition Zrotation Xrotation Yrotation
                          JOINT LeftHandRing3
                          {
                            OFFSET 0 -3.40001 0
                            CHANNELS 6 Xposition Yposition Zposition Zrotation Xrotation Yrotation
                            End Site
                            {
                              OFFSET 0 -2.6 0
                            }
                          }
                        }
                      }
                    }
                    JOINT LeftHandPinky
                    {
                      OFFSET -0.74998 -1.75 -1.85
                      CHANNELS 6 Xposition Yposition Zposition Zrotation Xrotation Yrotation
                      JOINT LeftHandPinky1
                      {
                        OFFSET -1.12935e-05 -7.15 -1
                        CHANNELS 6 Xposition Yposition Zposition Zrotation Xrotation Yrotation
                        JOINT LeftHandPinky2
                        {
                          OFFSET 0 -3 0
                          CHANNELS 6 Xposition Yposition Zposition Zrotation Xrotation Yrotation
                          JOINT LeftHandPinky3
                          {
                            OFFSET 0 -2.34999 0
                            CHANNELS 6 Xposition Yposition Zposition Zrotation Xrotation Yrotation
                            End Site
                            {
                              OFFSET 0 -2.1 0
                            }
                          }
                        }
                      }
                    }
                  }
                }
              }
            }
          }
          JOINT RightShoulder
          {
            OFFSET -5.00001 17 0
            CHANNELS 6 Xposition Yposition Zposition Zrotation Xrotation Yrotation
            JOINT RightShoulder2
            {
              OFFSET -6.45 0 0
              CHANNELS 6 Xposition Yposition Zposition Zrotation Xrotation Yrotation
              JOINT RightArm
              {
                OFFSET -6.45009 0 -1.16549e-05
                CHANNELS 6 Xposition Yposition Zposition Zrotation Xrotation Yrotation
                JOINT RightForeArm
                {
                  OFFSET 0 -32.4 -2
                  CHANNELS 6 Xposition Yposition Zposition Zrotation Xrotation Yrotation
                  JOINT RightHand
                  {
                    OFFSET 0 -25.65 2
                    CHANNELS 6 Xposition Yposition Zposition Zrotation Xrotation Yrotation
                    JOINT RightHandThumb1
                    {
                      OFFSET 0.499988 -1.50001 2.65
                      CHANNELS 6 Xposition Yposition Zposition Zrotation Xrotation Yrotation
                      JOINT RightHandThumb2
                      {
                        OFFSET 0 -3.8 3.7
                        CHANNELS 6 Xposition Yposition Zposition Zrotation Xrotation Yrotation
                        JOINT RightHandThumb3
                        {
                          OFFSET 0 -3 2.7
                          CHANNELS 6 Xposition Yposition Zposition Zrotation Xrotation Yrotation
                          End Site
                          {
                            OFFSET 0 -2.3 1.8
                          }
                        }
                      }
                    }
                    JOINT RightHandIndex
                    {
                      OFFSET -1.36279e-05 -1.90001 1.59999
                      CHANNELS 6 Xposition Yposition Zposition Zrotation Xrotation Yrotation
                      JOINT RightHandIndex1
                      {
                        OFFSET 1.20809e-05 -8.3 1.90002
                        CHANNELS 6 Xposition Yposition Zposition Zrotation Xrotation Yrotation
                        JOINT RightHandIndex2
                        {
                          OFFSET -1.98921e-05 -4.5 0
                          CHANNELS 6 Xposition Yposition Zposition Zrotation Xrotation Yrotation
                          JOINT RightHandIndex3
                          {
                            OFFSET 2.20523e-05 -3.4 0
                            CHANNELS 6 Xposition Yposition Zposition Zrotation Xrotation Yrotation
                            End Site
                            {
                              OFFSET -2.08434e-05 -2.6 0
                            }
                          }
                        }
                      }
                    }
                    JOINT RightHandMiddle
                    {
                      OFFSET 0.249994 -2.2 0.399998
                      CHANNELS 6 Xposition Yposition Zposition Zrotation Xrotation Yrotation
                      JOINT RightHandMiddle1
                      {
                        OFFSET 0 -8.30001 1.00001
                        CHANNELS 6 Xposition Yposition Zposition Zrotation Xrotation Yrotation
                        JOINT RightHandMiddle2
                        {
                          OFFSET 0 -4.64999 0
                          CHANNELS 6 Xposition Yposition Zposition Zrotation Xrotation Yrotation
                          JOINT RightHandMiddle3
                          {
                            OFFSET 0 -3.30001 0
                            CHANNELS 6 Xposition Yposition Zposition Zrotation Xrotation Yrotation
                            End Site
                            {
                              OFFSET -1.1601e-05 -2.7 0
                            }
                          }
                        }
                      }
                    }
                    JOINT RightHandRing
                    {
                      OFFSET 0.499991 -2.15001 -0.800003
                      CHANNELS 6 Xposition Yposition Zposition Zrotation Xrotation Yrotation
                      JOINT RightHandRing1
                      {
                        OFFSET 0 -7.75 -0.199996
                        CHANNELS 6 Xposition Yposition Zposition Zrotation Xrotation Yrotation
                        JOINT RightHandRing2
                        {
                          OFFSET 0 -3.8 0
                          CHANNELS 6 Xposition Yposition Zposition Zrotation Xrotation Yrotation
                          JOINT RightHandRing3
                          {
                            OFFSET 0 -3.4 0
                            CHANNELS 6 Xposition Yposition Zposition Zrotation Xrotation Yrotation
                            End Site
                            {
                              OFFSET 0 -2.6 0
                            }
                          }
                        }
                      }
                    }
                    JOINT RightHandPinky
                    {
                      OFFSET 0.749987 -1.75001 -1.85001
                      CHANNELS 6 Xposition Yposition Zposition Zrotation Xrotation Yrotation
                      JOINT RightHandPinky1
                      {
                        OFFSET 1.15617e-05 -7.15 -0.999995
                        CHANNELS 6 Xposition Yposition Zposition Zrotation Xrotation Yrotation
                        JOINT RightHandPinky2
                        {
                          OFFSET 0 -3 0
                          CHANNELS 6 Xposition Yposition Zposition Zrotation Xrotation Yrotation
                          JOINT RightHandPinky3
                          {
                            OFFSET 1.13701e-05 -2.35 0
                            CHANNELS 6 Xposition Yposition Zposition Zrotation Xrotation Yrotation
                            End Site
                            {
                              OFFSET -1.43155e-05 -2.1 0
                            }
                          }
                        }
                      }
                    }
                  }
                }
              }
            }
          }
        }
      }
    }
  }
  JOINT LeftUpLeg
  {
    OFFSET 8 0 0
    CHANNELS 6 Xposition Yposition Zposition Zrotation Xrotation Yrotation
    JOINT LeftLeg
    {
      OFFSET 0 -45 -0.999998
      CHANNELS 6 Xposition Yposition Zposition Zrotation Xrotation Yrotation
      JOINT LeftFoot
      {
        OFFSET 0 -41 -2
        CHANNELS 6 Xposition Yposition Zposition Zrotation Xrotation Yrotation
        JOINT LeftToeBase
        {
          OFFSET 0 -7.5 12.5
          CHANNELS 6 Xposition Yposition Zposition Zrotation Xrotation Yrotation
          JOINT LeftFootToe
          {
            OFFSET 0 0 4
            CHANNELS 6 Xposition Yposition Zposition Zrotation Xrotation Yrotation
            End Site
            {
              OFFSET 0 0 0
            }
          }
        }
      }
    }
  }
  JOINT RightUpLeg
  {
    OFFSET -8 0 0
    CHANNELS 6 Xposition Yposition Zposition Zrotation Xrotation Yrotation
    JOINT RightLeg
    {
      OFFSET 0 -45 -1
      CHANNELS 6 Xposition Yposition Zposition Zrotation Xrotation Yrotation
      JOINT RightFoot
      {
        OFFSET 0 -41 -2
        CHANNELS 6 Xposition Yposition Zposition Zrotation Xrotation Yrotation
        JOINT RightToeBase
        {
          OFFSET 0 -7.5 12.5
          CHANNELS 6 Xposition Yposition Zposition Zrotation Xrotation Yrotation
          JOINT RightFootToe
          {
            OFFSET 0 0 4
            CHANNELS 6 Xposition Yposition Zposition Zrotation Xrotation Yrotation
            End Site
            {
              OFFSET 0 0 0
            }
          }
        }
      }
    }
  }
}
MOTION
Frames:	3
Frame Time:	0.0111111
-60.0112 88.4947 189.444 -12.0788 10.4888 38.6679 0 8 2.84217e-14 -2.88594 13.021 -109.79 -1.42109e-14 8 0 -13.5933 -4.67574 96.4278 0 8 -1.42109e-14 -1.47394 3.21343 27.3075 0 8 0 -0.631045 2.21325 8.00165 -2.84217e-14 17 -7.10543e-15 0.0941116 -0.0551498 -1.46687 0 10.8 -7.10543e-15 0.217215 -0.132542 -3.42119 5 17 -1.42109e-14 -7.12865 -1.17337 5.33227 6.45 0 0 0.895382 4.09777 -1.53267 6.45 0 0 -31.5543 -68.4672 -48.1703 -2.84217e-14 -32.4 -2 5.88859 -50.7704 22.8464 0 -25.65 2 32.59 -6.65622 -2.82373 -0.5 -1.5 2.65 -6.36026 -19.9757 -5.71552 0 -3.8 3.7 -0.0269554 30.8959 0.0118477 2.84217e-14 -3 2.7 0.00456002 35.9509 -0.00350545 0 -1.9 1.6 8.27607e-32 5.96354e-15 -7.95139e-16 2.84217e-14 -8.3 1.9 -40.6747 5.62263 2.61317 -2.84217e-14 -4.5 1.42109e-14 -12.4066 -0.00235622 -0.00222541 0 -3.4 0 -10.6295 -0.00166505 0.00107922 -0.25 -2.2 0.4 8.27607e-32 5.96354e-15 -7.95139e-16 2.84217e-14 -8.3 1 -38.4795 2.10567 1.71562 2.84217e-14 -4.65 0 -16.4644 -0.00278947 -0.000578586 1.42109e-14 -3.3 -1.42109e-14 -13.5221 -0.00214979 -0.00433809 -0.5 -2.15 -0.8 8.27607e-32 5.96354e-15 -7.95139e-16 -2.84217e-14 -7.75 -0.2 -28.9225 4.24678 2.16304 2.84217e-14 -3.8 0 -33.0691 -0.000952391 -0.00224949 0 -3.4 0 -23.9274 5.59682e-05 0.000134999 -0.75 -1.75 -1.85 8.27607e-32 5.96354e-15 -7.95139e-16 0 -7.15 -1 -57.6893 2.06467 5.34232 1.42109e-14 -3 1.42109e-14 -0 0 2.38542e-15 -1.42109e-14 -2.35 -1.42109e-14 3.18055e-15 0 -0 -5 17 -7.10543e-15 -2.81098 -0.559056 -7.68819 -6.45 2.84217e-14 0 2.7875 4.87267 -1.58916 -6.45 0 0 10.0595 -78.6053 37.0879 0 -32.4 -2 14.5021 -47.1354 -13.5632 0 -25.65 2 -24.1518 -2.49822 -3.10524 0.5 -1.5 2.65 11.0714 -5.67622 1.42508 2.84217e-14 -3.8 3.7 0.44103 29.0089 -0.0967799 0 -3 2.7 0.0781249 21.3962 -0.101354 2.84217e-14 -1.9 1.6 9.54166e-15 1.59028e-15 6.36111e-15 -2.84217e-14 -8.3 1.9 23.6378 8.48772 -2.0028 0 -4.5 0 11.7408 0.00219525 -3.18055e-15 -2.84217e-14 -3.4 2.84217e-14 10.1331 0.0045998 9.54166e-15 0.25 -2.2 0.4 9.54166e-15 1.59028e-15 6.36111e-15 0 -8.3 1 21.2596 7.51397 -1.69338 2.84217e-14 -4.65 0 22.1592 -0.0104615 0.00169292 0 -3.3 0 17.278 0.000816905 0.004745 0.5 -2.15 -0.8 9.54166e-15 1.59028e-15 6.36111e-15 0 -7.75 -0.2 17.1113 3.10861 -0.790952 5.68434e-14 -3.8 -2.84217e-14 25.5371 0.00142128 -0.00297017 0 -3.4 0 19.3888 0.00183683 0.00380445 0.75 -1.75 -1.85 9.54166e-15 1.59028e-15 6.36111e-15 0 -7.15 -1 12.9665 0.340494 -0.309547 -2.84217e-14 -3 0 28.6448 -0.0141205 0.00334481 0 -2.35 0 21.2795 -0.00502351 0.00225859 8 0 1.42109e-14 24.3401 -35.1591 28.352 0 -45 -1 -0.0139368 31.2636 0.109004 -2.84217e-14 -41 -2 -9.61095 -5.54622 -18.3292 0 -7.5 12.5 -6.06643e-21 0 6.36111e-15 0 0 4 4.19753 2.55052 0.00130795 -8 0 2.84217e-14 -2.75436 -41.7961 -1.26251 0 -45 -1 -0.464794 27.5116 2.36824 0 -41 -2 5.44563 -1.53663 5.01717 2.84217e-14 -7.5 12.5 1.51661e-21 -1.51661e-21 -3.18055e-15 -2.84217e-14 -1.35525e-20 4 -7.62099 -2.96123 0.00151598 
-59.7497 88.7935 189.726 -11.8254 9.96593 38.5644 -2.84217e-14 8 1.42109e-14 -2.79043 12.3983 -109.683 -2.84217e-14 8 0 -13.3951 -4.34871 96.4781 0 8 -1.42109e-14 -1.43323 3.12339 27.3446 0 8 0 -0.628215 2.16218 8.04655 0 17 -7.10543e-15 0.121271 0.237616 -1.44852 0 10.8 0 0.292195 0.549515 -3.37922 5 17 -7.10543e-15 -7.03634 -1.11208 5.20791 6.45 -2.84217e-14 2.84217e-14 0.886355 4.25481 -1.57682 6.45 2.84217e-14 0 -30.1687 -68.6005 -46.8169 -2.84217e-14 -32.4 -2 5.77454 -50.6628 22.4307 0 -25.65 2 32.5392 -6.59072 -3.05237 -0.5 -1.5 2.65 -6.36168 -19.9286 -5.77196 0 -3.8 3.7 -0.0271121 30.9907 0.0118595 0 -3 2.7 0.00470522 35.8014 -0.00349884 0 -1.9 1.6 0 2.18663e-15 -0 0 -8.3 1.9 -40.6354 5.68396 2.63076 0 -4.5 -1.42109e-14 -12.4066 -0.00234339 -0.00217668 0 -3.4 0 -10.6296 -0.00167136 0.000987377 -0.25 -2.2 0.4 0 2.18663e-15 -0 -2.84217e-14 -8.3 1 -38.4926 2.17683 1.74251 0 -4.65 -1.42109e-14 -16.3774 -0.00282765 -0.0006554 1.42109e-14 -3.3 0 -13.4622 -0.00228578 -0.0043083 -0.5 -2.15 -0.8 0 2.18663e-15 -0 2.84217e-14 -7.75 -0.2 -29.0892 4.29676 2.19767 -2.84217e-14 -3.8 0 -32.9749 -0.00114359 -0.00219085 0 -3.4 -1.42109e-14 -23.8713 -4.34272e-05 6.09507e-05 -0.75 -1.75 -1.85 0 2.18663e-15 -0 0 -7.15 -1 -57.6868 2.04501 5.32799 0 -3 -1.42109e-14 3.18055e-15 7.95139e-16 3.97569e-16 0 -2.35 2.84217e-14 -6.62086e-32 1.59028e-15 2.38542e-15 -5 17 0 -2.75207 -0.587822 -7.48321 -6.45 0 0 2.82384 4.98778 -1.62122 -6.45 0 -1.42109e-14 9.1542 -78.2706 36.0463 0 -32.4 -2 14.1991 -46.9977 -13.1991 0 -25.65 2 -24.2535 -2.61652 -2.55895 0.5 -1.5 2.65 11.0491 -5.70267 1.40369 0 -3.8 3.7 0.428735 29.1229 -0.097235 0 -3 2.7 0.0782895 21.4185 -0.101879 0 -1.9 1.6 0 3.18055e-15 -0 0 -8.3 1.9 23.5661 8.45797 -1.98861 0 -4.5 0 11.8498 0.00224878 -1.27222e-14 2.84217e-14 -3.4 0 10.2149 0.00469285 -6.36111e-15 0.25 -2.2 0.4 0 3.18055e-15 -0 0 -8.3 1 21.2121 7.4341 -1.67065 -2.84217e-14 -4.65 2.84217e-14 21.9581 -0.0113422 0.00166735 0 -3.3 0 17.1499 0.000705859 0.00466488 0.5 -2.15 -0.8 0 3.18055e-15 -0 0 -7.75 -0.2 16.9726 3.0735 -0.775314 0 -3.8 0 25.569 0.00326478 -0.00297017 0 -3.4 0 19.4084 0.00185487 0.00380113 0.75 -1.75 -1.85 0 3.18055e-15 -0 0 -7.15 -1 12.9078 0.31088 -0.304552 0 -3 0 28.4228 -0.00978124 0.00334106 0 -2.35 -2.84217e-14 21.1458 -0.00529517 0.00225859 8 0 1.42109e-14 24.0453 -33.9524 28.1505 0 -45 -1 -0.00531304 30.3696 0.074016 0 -41 -2 -9.61849 -5.3318 -18.4448 0 -7.5 12.5 -1.42182e-21 -6.63515e-22 6.36111e-15 0 0 4 4.10939 2.46589 0.00132256 -8 0 1.42109e-14 -2.55196 -40.3066 -1.12287 0 -45 -1 -0.415801 26.198 2.25549 0 -41 -2 5.45371 -1.14636 5.02384 -2.84217e-14 -7.5 12.5 7.58303e-22 -1.51661e-21 -9.54166e-15 0 0 4 -7.5736 -2.98989 0.00151602 
-59.4745 89.0964 190.012 -11.5662 9.50144 38.482 0 8 0 -2.67645 11.7614 -109.613 0 8 0 -13.2011 -4.09591 96.5047 -2.84217e-14 8 2.84217e-14 -1.38419 3.01352 27.3816 0 8 0 -0.619061 2.06356 8.09707 -2.84217e-14 17 -7.10543e-15 0.146358 0.540436 -1.42977 0 10.8 -1.42109e-14 0.362469 1.25516 -3.33711 5 17 7.10543e-15 -6.94306 -1.06434 5.06897 6.45 0 -1.42109e-14 0.865842 4.3724 -1.61985 6.45 0 1.42109e-14 -28.6377 -68.6725 -45.3067 0 -32.4 -2 5.58556 -50.4619 21.9471 -2.84217e-14 -25.65 2 32.5012 -6.61127 -3.29014 -0.5 -1.5 2.65 -6.39503 -19.8655 -5.84527 0 -3.8 3.7 -0.0272377 30.9543 0.0118549 0 -3 2.7 0.00486073 35.7754 -0.0034977 0 -1.9 1.6 -3.18055e-15 -4.96962e-16 7.95139e-16 -2.84217e-14 -8.3 1.9 -40.5979 5.71764 2.63802 0 -4.5 0 -12.3966 -0.00233078 -0.00212839 0 -3.4 1.42109e-14 -10.6221 -0.00167961 0.000872659 -0.25 -2.2 0.4 -3.18055e-15 -4.96962e-16 7.95139e-16 0 -8.3 1 -38.4936 2.21586 1.75736 2.84217e-14 -4.65 0 -16.327 -0.00286675 -0.000734943 1.42109e-14 -3.3 -1.42109e-14 -13.4276 -0.00242971 -0.0042784 -0.5 -2.15 -0.8 -3.18055e-15 -4.96962e-16 7.95139e-16 2.84217e-14 -7.75 -0.2 -29.1843 4.31537 2.21838 0 -3.8 -1.42109e-14 -32.9299 -0.00132958 -0.00213279 0 -3.4 1.42109e-14 -23.8445 -0.000143606 -9.19637e-06 -0.75 -1.75 -1.85 -3.18055e-15 -4.96962e-16 7.95139e-16 0 -7.15 -1 -57.6817 2.01387 5.30492 0 -3 1.42109e-14 3.18055e-15 1.59028e-15 -3.97569e-16 -1.42109e-14 -2.35 0 -3.18055e-15 -2.38542e-15 -3.18055e-15 -5 17 1.42109e-14 -2.69121 -0.634505 -7.27483 -6.45 2.84217e-14 -1.42109e-14 2.85505 5.0649 -1.64846 -6.45 0 -1.42109e-14 8.06424 -77.7988 34.8031 2.84217e-14 -32.4 -2 13.8876 -46.9223 -12.7032 0 -25.65 2 -24.382 -2.71852 -1.96776 0.5 -1.5 2.65 11.0121 -5.63757 1.36854 0 -3.8 3.7 0.422664 29.3457 -0.0977896 0 -3 2.7 0.0784545 21.4489 -0.102368 -2.84217e-14 -1.9 1.6 8.82781e-32 1.59028e-15 -3.18055e-15 0 -8.3 1.9 23.5083 8.46209 -1.98193 0 -4.5 0 11.9826 0.00230355 -3.18055e-15 2.84217e-14 -3.4 0 10.3143 0.00478789 -0 0.25 -2.2 0.4 8.82781e-32 1.59028e-15 -3.18055e-15 0 -8.3 1 21.1742 7.40519 -1.65753 0 -4.65 0 21.7721 -0.0121761 0.0016431 0 -3.3 0 17.0312 0.000592164 0.00458402 0.5 -2.15 -0.8 8.82781e-32 1.59028e-15 -3.18055e-15 0 -7.75 -0.2 16.8266 3.06386 -0.758386 0 -3.8 0 25.6635 0.00489763 -0.00297017 0 -3.4 -2.84217e-14 19.4664 0.00187067 0.00379785 0.75 -1.75 -1.85 8.82781e-32 1.59028e-15 -3.18055e-15 0 -7.15 -1 12.7778 0.320312 -0.297437 0 -3 0 28.3387 -0.00784522 0.00333729 0 -2.35 0 21.095 -0.00524037 0.00225859 8 1.42109e-14 1.42109e-14 23.6952 -32.7489 27.9655 0 -45 -1 0.00340902 29.3941 0.0382074 2.84217e-14 -41 -2 -9.62113 -5.08104 -18.5662 -2.84217e-14 -7.5 12.5 1.21329e-20 -1.21329e-20 1.59028e-14 0 0 4 4.02318 2.38341 0.00133666 -8 -1.42109e-14 0 -2.42351 -38.8241 -1.01919 0 -45 -1 -0.368285 24.8281 2.14314 0 -41 -2 5.46764 -0.733644 5.0289 0 -7.5 12.5 -1.21329e-20 1.21329e-20 -3.18055e-15 0 -2.71051e-20 4 -7.52807 -3.01693 0.00151605 
